<?xml version="1.0" encoding="utf-8" ?><svg xmlns="http://www.w3.org/2000/svg" xmlns:xlink="http://www.w3.org/1999/xlink" width="676" height="356" viewBox="0 0 676 356"><path fill="#2564EC" d="M179.885 15.9885C184.562 15.849 196.056 16.339 201.04 17.2162C218.855 20.7421 245.156 24.3165 257.854 37.9925C263.146 43.6923 260.833 55.4225 254.263 59.8674C243.874 66.8962 232.194 59.1493 222.123 55.7568C215.741 53.6361 209.201 52.0221 202.565 50.9297C168.442 45.6596 133.621 54.1086 105.713 74.4293C78.4356 94.3304 60.121 124.191 54.7516 157.517C49.2921 192.325 57.659 225.516 78.3839 253.864C98.443 281.109 128.424 299.367 161.844 304.692C196.14 310.308 231.252 301.874 259.251 281.296C292.303 257.031 310.679 220.076 311.887 179.275C312.024 175.097 311.874 170.914 311.44 166.755C310.332 155.341 306.97 145.315 317.577 137.6C321.467 135.388 326.422 134.681 330.76 135.73C344.071 138.948 344.469 160.952 344.855 171.845C346.75 214.503 331.284 256.109 301.982 287.18C273.158 318.095 231.312 338.165 188.913 339.608C144.947 341.002 102.249 324.765 70.3272 294.514C39.6633 265.63 21.6575 225.806 20.2309 183.715C18.5954 140.729 34.3122 98.8894 63.848 67.6028C94.3018 35.1106 135.574 17.4399 179.885 15.9885Z"/><path fill="#2564EC" d="M297.5 68.7251C298.021 68.6724 298.544 68.6318 299.067 68.6034C303.693 68.3972 308.209 70.0488 311.609 73.1902C314.741 76.0544 316.593 80.0543 316.75 84.2944C316.921 90.2348 313.991 93.981 310.363 98.2183C305.756 103.599 300.908 108.721 296.106 113.922L266.017 146.58L205.475 212.936C197.878 221.213 190.207 229.605 182.657 237.909C167.225 254.881 153.979 237.03 142.966 225.962L119.001 202.085C112.517 195.372 100.998 187.141 100.492 177.241C99.8297 164.262 115.207 155.611 126.084 163.111C132.992 167.875 138.3 174.187 144.161 180.096C152.127 188.179 160.194 196.162 168.36 204.044C192.953 176.653 218.821 149.518 243.628 122.167L272.214 90.6992C277.954 84.3841 283.851 77.6975 290.059 71.8275C292.091 69.9065 294.842 69.3551 297.5 68.7251Z"/><path fill="#2564EC" d="M409.162 253.548L567.694 253.471L615.932 253.386C624.898 253.368 634.148 253.161 643.085 253.694C646.833 253.918 649.658 254.891 652.61 257.388C655.854 260.163 657.846 264.124 658.139 268.382C658.904 278.828 650.519 286.819 640.592 287.511C619.429 287.242 598.264 287.163 577.101 287.276L477.57 287.268L434.546 287.237C425.778 287.226 416.695 287.393 407.965 286.71C403.91 286.394 400.961 285.584 397.735 282.916C394.068 279.89 391.781 275.512 391.391 270.775C390.555 260.294 399.548 254.08 409.162 253.548Z"/><path fill="#2564EC" d="M408.068 161.158C421.745 160.634 436.849 161.29 450.648 161.334L530.834 161.353L601.683 161.323C614.333 161.315 627.229 161.193 639.877 161.503C643.587 161.594 647.449 162.348 650.617 164.373C654.124 166.6 656.592 170.14 657.471 174.199C659.93 185.365 652.369 192.845 641.984 194.903C627.714 195.49 611.494 194.965 597.032 194.958L510.755 194.945L444.995 194.938C433.176 194.935 420.956 195.064 409.149 194.647C405.119 194.505 401.811 193.787 398.543 191.396C394.8 188.62 392.327 184.46 391.677 179.847C390.085 169.138 398.281 162.494 408.068 161.158Z"/><path fill="#2564EC" d="M406.883 69.4205C412.622 69.1215 420.668 69.429 426.611 69.4364L465.247 69.4556L507.415 69.5084C514.084 69.5083 534.875 68.7465 540.222 70.9859C544.667 72.8356 548.172 76.408 549.936 80.8864C553.958 91.4016 546.428 99.1145 537.125 102.52C532.213 103.32 523.822 102.939 518.615 102.943L484.484 102.952L431.579 102.859C425.897 102.816 420.217 102.846 414.537 102.794C408.853 102.742 403.219 103.003 398.494 99.45C394.988 96.8543 392.698 92.9378 392.155 88.6108C390.785 78.484 396.725 70.7265 406.883 69.4205Z"/></svg>